<?xml version="1.0" encoding="utf-8"?>
<!DOCTYPE svg PUBLIC "-//W3C//DTD SVG 1.1//EN" "http://www.w3.org/Graphics/SVG/1.1/DTD/svg11.dtd">
<svg xmlns="http://www.w3.org/2000/svg" xmlns:xlink="http://www.w3.org/1999/xlink" version="1.1" baseProfile="full" width="179.555" height="179.555" viewBox="0 0 179.56 179.56" enable-background="new 0 0 179.56 179.56" xml:space="preserve">
	<g>
		<path fill="#987FFF" fill-opacity="1" stroke-width="0.2" stroke-linejoin="round" d="M 58.7691,1.05006C 69.6133,0.52504 80.4574,1.52588e-005 90.7934,1.52588e-005C 101.13,1.52588e-005 110.958,0.52504 120.786,1.05006C 151.794,1.05006 178.506,27.7618 178.506,58.7693C 179.031,68.9015 179.555,79.0338 179.555,89.3699C 179.555,99.7061 179.031,110.246 178.506,120.786C 178.506,151.793 151.794,178.505 120.786,178.505C 111.089,179.03 101.392,179.555 91.0562,179.555C 80.72,179.555 69.7447,179.03 58.7691,178.505C 27.7617,178.505 1.05032,151.793 1.05032,120.786C 0.525269,109.721 3.05176e-005,98.6561 3.05176e-005,88.3199C 3.05176e-005,77.9837 0.525269,68.3765 1.05032,58.7692C 1.05032,27.7617 27.7617,1.05006 58.7691,1.05006 Z "/>
		<path fill="#545454" fill-opacity="0.203922" stroke-width="0.2" stroke-linejoin="round" d="M 90.3209,31.1847C 122.987,31.4722 149.379,58.0416 149.379,90.7755C 149.379,103.682 145.275,115.631 138.302,125.388C 127.494,140.511 109.791,150.369 89.7855,150.369C 82.6931,150.369 75.8902,149.13 69.5813,146.856C 67.7237,146.187 65.909,145.428 64.1423,144.585C 44.4337,135.176 30.7047,115.258 30.2063,92.0817L 30.1923,90.7755C 30.1923,64.1619 47.6378,41.6231 71.717,33.9708C 77.416,32.1597 83.4866,31.1824 89.7855,31.1824L 90.3209,31.1847 Z "/>
		<g>
			<path fill="#FFFFFF" fill-opacity="1" stroke-width="0.2" stroke-linejoin="round" d="M 90.426,32.8555L 90.1634,37.5806L 93.3135,38.762L 96.7261,40.4683L 100.27,40.8621L 103.683,41.7808L 105.389,42.3058L 107.751,43.8809L 107.751,45.8497L 107.883,48.3435L 108.67,50.5748L 112.083,52.5437L 114.577,54.1187L 115.889,54.1187L 116.02,55.6937L 116.152,58.1876L 115.102,59.7627L 113.92,61.6002L 113.658,62.6502L 115.102,64.4878L 116.939,65.8004L 118.252,66.0629L 120.221,64.8816L 122.321,62.2565L 124.29,61.0752L 125.996,61.469L 128.49,62.2565L 130.852,63.9628L 131.902,64.5863L 131.902,66.0957L 131.574,68.6551L 130.393,68.7208L 128.752,67.7364L 125.799,67.4739L 122.321,68.4583L 121.205,69.1802L 119.236,70.2958L 116.611,70.8865L 114.117,70.8865L 111.033,71.5427L 108.342,72.9209L 107.03,75.4147L 105.258,78.3023L 104.273,79.8773L 104.24,83.3556L 104.109,86.112L 105.684,88.2121L 107.259,89.9184L 108.834,92.4122L 109.884,93.3309L 110.573,93.9544L 111.23,94.6107L 112.641,95.2998L 113.888,95.2341L 115.102,94.1841L 116.677,93.0684L 117.399,92.0184L 118.35,91.1981L 119.86,91.1981L 120.778,92.2481L 121.599,93.3309L 122.862,94.2335L 123.453,95.0867L 124.109,96.5962L 124.043,98.3681L 124.043,99.9432L 124.24,101.781L 124.897,102.962L 125.947,104.668L 126.209,107.293L 126.669,110.247L 126.701,112.051L 126.898,115.103L 126.898,117.269L 128.473,119.041L 130.541,120.32L 132.608,120.714L 134.38,121.502L 135.561,123.175C 135.561,123.175 137.333,124.356 137.825,124.356C 137.911,124.356 138.08,124.368 138.303,124.387C 145.276,114.631 149.379,102.682 149.379,89.7755C 149.379,57.0416 122.987,30.4721 90.3212,30.1846L 90.426,32.8555 Z "/>
			<path fill="#B5A5FE" fill-opacity="1" stroke-width="0.2" stroke-linejoin="round" d="M 35.6928,90.6074L 30.7052,91.0012L 30.2067,91.0816C 30.7051,114.257 44.4341,134.175 64.1427,143.585L 64.0438,140.222L 64.3063,138.253L 65.2251,134.971L 65.2251,131.428L 65.4876,127.359L 65.3563,124.077L 63.9125,122.108L 63.125,120.14L 60.7624,118.302L 58.9249,116.464L 56.6935,113.839L 56.5623,110.952L 55.7747,107.67L 55.6435,104.258L 56.8248,102.289L 57.4811,100.189L 57.3498,96.9076L 55.5122,96.2514L 54.3309,95.3326L 51.3121,93.8888L 47.637,91.2637L 46.0619,90.4762L 40.6805,90.8699L 35.6928,90.6074 Z "/>
			<path fill="#FFFFFF" fill-opacity="1" stroke-width="0.2" stroke-linejoin="round" d="M 69.2935,144.618L 71.3936,142.387L 74.5436,139.368L 77.1687,137.924L 79.925,134.905L 83.0751,132.018L 85.044,128.868L 86.8815,126.111L 88.1941,125.061L 88.7191,122.83L 89.6379,120.336L 90.5566,117.711L 92.1317,115.48L 94.6255,113.905L 94.6255,108.917L 92.5255,107.342L 90.5566,106.948L 88.1941,105.767L 85.9627,105.11L 81.2376,104.323L 78.875,101.698L 77.4312,100.385L 75.1999,97.629L 72.706,94.7415L 70.4747,92.5101L 67.5871,90.9351L 63.7808,90.6725L 61.4182,92.2476L 59.7119,92.9039L 56.9555,92.5101L 54.1669,90.3778L 51.0168,87.4246L 49.6386,85.5541L 46.1932,84.7666L 44.6181,83.8806L 43.9291,79.943L 44.815,78.5648L 47.276,76.3007L 48.8511,75.71L 51.1152,76.8914L 53.084,77.5805L 54.9544,76.7929L 55.3482,75.2178L 56.0373,72.8553L 57.5139,69.6068L 57.317,66.752L 57.2185,65.3738L 60.664,62.1253L 63.4203,59.2704L 64.8969,58.9752L 65.3891,60.1564L 67.1611,60.1564L 69.0314,58.5814L 70.0815,56.2188L 71.0003,53.9874L 70.4752,51.8873L 70.4752,43.2246L 72.5753,41.7808L 74.9379,40.9933L 75.7254,40.2058L 76.7755,39.1558L 76.6442,37.7119L 74.1504,34.8244L 71.7174,32.9707C 47.6382,40.6229 30.1927,63.1619 30.1927,89.7755C 30.1927,90.2119 30.1974,90.6474 30.2067,91.0816L 30.7052,91.0012L 35.6928,90.6074L 40.6805,90.8699L 46.0619,90.4762L 47.637,91.2637L 51.3121,93.8888L 54.3309,95.3326L 55.5122,96.2514L 57.3498,96.9076L 57.4811,100.189L 56.8248,102.289L 55.6435,104.258L 55.7747,107.67L 56.5623,110.952L 56.6935,113.839L 58.9249,116.464L 60.7624,118.302L 63.125,120.14L 63.9125,122.108L 65.3563,124.077L 65.4876,127.359L 65.2251,131.428L 65.2251,134.971L 64.3063,138.253L 64.0438,140.222L 64.1427,143.585C 65.9093,144.428 67.7241,145.187 69.5816,145.856L 69.2935,144.618 Z "/>
			<path fill="#B5A5FE" fill-opacity="1" stroke-width="0.2" stroke-linejoin="round" d="M 90.3212,30.1846C 90.1429,30.1831 89.9644,30.1823 89.7858,30.1823C 83.487,30.1823 77.4164,31.1595 71.7174,32.9707L 74.1504,34.8244L 76.6442,37.7119L 76.7755,39.1558L 75.7254,40.2058L 74.9379,40.9933L 72.5753,41.7808L 70.4752,43.2246L 70.4752,51.8873L 71.0003,53.9874L 70.0815,56.2188L 69.0314,58.5814L 67.1611,60.1564L 65.3891,60.1564L 64.8969,58.9752L 63.4203,59.2704L 60.664,62.1253L 57.2185,65.3738L 57.317,66.752L 57.5139,69.6068L 56.0373,72.8553L 55.3482,75.2178L 54.9544,76.7929L 53.084,77.5805L 51.1152,76.8914L 48.8511,75.71L 47.276,76.3007L 44.815,78.5648L 43.9291,79.943L 44.6181,83.8806L 46.1932,84.7666L 49.6386,85.5541L 51.0168,87.4246L 54.1669,90.3778L 56.9555,92.5101L 59.7119,92.9039L 61.4182,92.2476L 63.7808,90.6725L 67.5871,90.9351L 70.4747,92.5101L 72.706,94.7415L 75.1999,97.629L 77.4312,100.385L 78.875,101.698L 81.2376,104.323L 85.9627,105.11L 88.1941,105.767L 90.5566,106.948L 92.5255,107.342L 94.6255,108.917L 94.6255,113.905L 92.1317,115.48L 90.5566,117.711L 89.6379,120.336L 88.7191,122.83L 88.1941,125.061L 86.8815,126.111L 85.044,128.868L 83.0751,132.018L 79.925,134.905L 77.1687,137.924L 74.5436,139.368L 71.3936,142.387L 69.2935,144.618L 69.5816,145.856C 75.8906,148.13 82.6935,149.369 89.7858,149.369C 109.791,149.369 127.495,139.511 138.303,124.387C 138.08,124.368 137.911,124.356 137.825,124.356C 137.333,124.356 135.561,123.175 135.561,123.175L 134.38,121.502L 132.608,120.714L 130.541,120.32L 128.473,119.041L 126.898,117.269L 126.898,115.103L 126.701,112.051L 126.669,110.247L 126.209,107.293L 125.947,104.668L 124.897,102.962L 124.24,101.781L 124.043,99.9432L 124.043,98.3681L 124.109,96.5962L 123.453,95.0867L 122.862,94.2335L 121.599,93.3309L 120.778,92.2481L 119.86,91.1981L 118.35,91.1981L 117.399,92.0184L 116.677,93.0684L 115.102,94.1841L 113.888,95.2341L 112.641,95.2998L 111.23,94.6107L 110.573,93.9544L 109.884,93.3309L 108.834,92.4122L 107.259,89.9184L 105.684,88.2121L 104.109,86.112L 104.24,83.3556L 104.273,79.8773L 105.258,78.3023L 107.03,75.4147L 108.342,72.9209L 111.033,71.5427L 114.117,70.8865L 116.611,70.8865L 119.236,70.2958L 121.205,69.1802L 122.321,68.4583L 125.799,67.4739L 128.752,67.7364L 130.393,68.7208L 131.574,68.6551L 131.902,66.0957L 131.902,64.5863L 130.852,63.9628L 128.49,62.2565L 125.996,61.469L 124.29,61.0752L 122.321,62.2565L 120.221,64.8816L 118.252,66.0629L 116.939,65.8004L 115.102,64.4878L 113.658,62.6502L 113.92,61.6002L 115.102,59.7627L 116.152,58.1876L 116.02,55.6937L 115.889,54.1187L 114.577,54.1187L 112.083,52.5437L 108.67,50.5748L 107.883,48.3435L 107.751,45.8497L 107.751,43.8809L 105.389,42.3058L 103.683,41.7808L 100.27,40.8621L 96.7261,40.4683L 93.3135,38.762L 90.1634,37.5806L 90.426,32.8555L 90.3212,30.1846 Z "/>
		</g>
	</g>
</svg>
