<?xml version="1.0" encoding="utf-8"?>
<!DOCTYPE svg PUBLIC "-//W3C//DTD SVG 1.1//EN" "http://www.w3.org/Graphics/SVG/1.1/DTD/svg11.dtd">
<svg xmlns="http://www.w3.org/2000/svg" xmlns:xlink="http://www.w3.org/1999/xlink" version="1.1" baseProfile="full" width="119.223" height="119.637" viewBox="0 0 119.22 119.64" enable-background="new 0 0 119.22 119.64" xml:space="preserve">
	<g>
		<path fill="#706CF5" fill-opacity="1" stroke-width="0.2" stroke-linejoin="round" d="M 69.4784,9.15527e-005C 99.0972,9.15527e-005 119.223,20.1257 119.223,49.7445L 119.223,69.8928L 119.184,72.1194C 118.2,100.516 98.3489,119.637 69.4784,119.637L 49.7444,119.637C 20.1257,119.637 3.05176e-005,100.159 3.05176e-005,70.5403L 3.05176e-005,49.097C 3.05176e-005,20.3626 18.9417,1.17227 47.1169,0.0518799L 49.7444,0L 69.4784,9.15527e-005 Z "/>
		<g>
			<path fill="#FFFFFF" fill-opacity="0.992157" stroke-width="0.2" stroke-linejoin="round" d="M 61.2823,96.3075C 62.642,96.3075 63.9842,96.2331 65.3053,96.0883L 62.8026,91.1426L 61.2823,91.1787C 48.988,91.1787 38.3462,84.1041 33.2057,73.8039C 30.6094,72.4354 28.2301,71.007 26.1044,69.5456C 30.3614,84.9757 44.4986,96.3075 61.2823,96.3075 Z "/>
			<path fill="#FFFFFF" fill-opacity="0.992157" stroke-width="0.2" stroke-linejoin="round" d="M 92.5637,62.0572L 97.7333,62.0573C 97.7332,62.0573 97.7107,60.5978 97.6943,57.433C 96.4654,38.3929 80.6329,23.3302 61.2823,23.3302C 48.7258,23.3302 37.6507,29.6725 31.0857,39.3285C 23.1794,40.4535 17.7806,43.3109 16.5786,47.727C 15.3731,52.1555 18.6005,57.3719 24.8808,62.3617C 26.5739,63.7069 28.4889,65.0357 30.5987,66.328C 37.4956,70.5528 47.6297,74.8172 57.7464,77.5709L 55.6255,70.9893C 45.1069,67.9384 36.0468,63.893 29.9223,59.7943C 29.9268,53.9989 31.5032,48.5714 34.2483,43.9152C 39.7017,34.6652 49.7672,28.4588 61.2823,28.4588C 78.602,28.4588 92.6423,42.4992 92.6423,59.8189L 92.6417,60.014C 92.6375,60.7005 92.6113,61.3817 92.5637,62.0572 Z M 28.3855,44.0125L 28.1213,44.5737C 26.5068,48.0796 25.432,51.8852 25.0032,55.8842C 22.3601,53.2817 21.1327,50.7818 21.7166,48.6364C 22.3068,46.4682 24.6754,44.9256 28.3855,44.0125 Z "/>
			<path fill="#FFFFFF" fill-opacity="1" stroke-width="0.2" stroke-linejoin="round" d="M 58.9022,66.7851L 64.1966,66.7852L 73.0709,91.5869L 67.7764,91.5868L 58.9022,66.7851 Z "/>
			<path fill="#FFFFFF" fill-opacity="1" stroke-width="0.2" stroke-linejoin="round" d="M 77.2251,66.29L 82.7032,66.2899L 75.1233,88.1479L 72.1112,80.148L 77.2251,66.29 Z "/>
			<path fill="#FFFFFF" fill-opacity="1" stroke-width="0.2" stroke-linejoin="round" d="M 88.9134,79.496L 94.9324,79.496L 102.471,91.5346L 96.4518,91.5346L 88.9134,79.496 Z "/>
			<path fill="#FFFFFF" fill-opacity="1" stroke-width="0.2" stroke-linejoin="round" d="M 96.851,78.5611L 99.2999,82.3126C 99.2999,82.3127 102.739,80.4431 102.739,76.998C 102.739,71.5821 101.033,66.4207 92.9431,66.4207C 84.8533,66.4207 83.7728,69.0747 83.7727,72.8296C 83.7727,76.5844 83.7727,91.5363 83.7727,91.5363L 88.6229,91.5363L 88.6229,72.2032C 88.6229,72.2032 88.0789,70.8495 93.6726,70.8496C 99.2661,70.8499 98.414,77.6234 96.851,78.5611 Z "/>
		</g>
	</g>
</svg>
