<?xml version="1.0" encoding="utf-8"?>
<!DOCTYPE svg PUBLIC "-//W3C//DTD SVG 1.1//EN" "http://www.w3.org/Graphics/SVG/1.1/DTD/svg11.dtd">
<svg xmlns="http://www.w3.org/2000/svg" xmlns:xlink="http://www.w3.org/1999/xlink" version="1.1" baseProfile="full" width="184.122" height="184.762" viewBox="0 0 184.12 184.76" enable-background="new 0 0 184.12 184.76" xml:space="preserve">
	<g>
		<g>
			<path fill="#8D89F7" fill-opacity="1" stroke-width="0.2" stroke-linejoin="round" d="M 107.299,4.57764e-005L 76.8231,-1.52588e-005C 75.4573,-1.52588e-005 74.1045,0.0268402 72.7652,0.0800629L 184.063,111.378C 184.103,110.241 184.122,109.095 184.122,107.939L 184.122,76.823C 184.122,31.0812 153.041,4.57764e-005 107.299,4.57764e-005 Z "/>
			<path fill="#706CF5" fill-opacity="1" stroke-width="0.2" stroke-linejoin="round" d="M 76.8231,184.762L 107.299,184.762C 151.886,184.762 182.542,155.232 184.063,111.378L 72.7652,0.0800629C 29.2527,1.81035 0,31.4471 0,75.8232L 0,108.939C 0,154.681 31.0811,184.762 76.8231,184.762 Z "/>
		</g>
		<g>
			<path fill="#FFFFFF" fill-opacity="1" stroke-width="0.2" stroke-linejoin="round" d="M 118.805,132.96C 111.152,138.024 101.978,140.972 92.1152,140.972C 73.1285,140.972 56.6936,130.046 48.7548,114.139C 44.7452,112.026 41.0708,109.82 37.7879,107.562C 44.3623,131.392 66.1951,148.892 92.1152,148.892C 107.507,148.892 121.457,142.722 131.627,132.72C 127.656,133.051 123.358,133.134 118.805,132.96 Z "/>
			<path fill="#FFFFFF" fill-opacity="1" stroke-width="0.2" stroke-linejoin="round" d="M 44.7288,102.593C 41.4705,100.598 38.5131,98.5456 35.8984,96.4681C 26.1993,88.762 21.2151,80.706 23.0767,73.8669C 24.9331,67.0469 33.2708,62.6341 45.4809,60.8967C 55.6195,45.9844 72.7235,36.1894 92.1152,36.1894C 121.999,36.1894 146.45,59.4517 148.348,88.8564C 158.044,96.5611 163.025,104.615 161.164,111.453C 159.298,118.309 150.883,122.732 138.568,124.45C 135.256,124.913 131.662,125.179 127.837,125.245C 115.369,125.458 100.452,123.536 84.8706,119.295C 69.2468,115.043 55.3801,109.118 44.7288,102.593 Z M 134.089,116.719C 138.149,109.685 140.492,101.535 140.545,92.8423L 140.546,92.541C 140.546,65.7933 118.863,44.11 92.1151,44.11C 74.3317,44.11 58.787,53.6948 50.365,67.9801C 46.1256,75.1711 43.691,83.553 43.6842,92.5031C 53.7732,99.2551 69.0203,105.913 86.6572,110.714C 104.862,115.669 121.875,117.628 134.089,116.719 Z M 143.767,115.107C 148.624,113.681 151.756,111.427 152.589,108.364C 153.438,105.247 151.811,101.646 148.217,97.884L 148.141,98.6309C 147.518,104.432 146.014,109.969 143.767,115.107 Z M 40.9027,68.997L 41.3108,68.1304C 35.581,69.5403 31.9232,71.9228 31.0118,75.2712C 30.1099,78.5845 32.0054,82.4452 36.0874,86.4643C 36.7495,80.2885 38.4095,74.4113 40.9027,68.997 Z "/>
		</g>
		<g>
			<g>
				<path fill="#FFFFFF" fill-opacity="1" stroke-width="0.2" stroke-linejoin="round" d="M 154.725,35.37L 157.545,38.1899L 145.115,50.6194L 142.295,47.7995L 154.725,35.37 Z "/>
				<path fill="#FFFFFF" fill-opacity="1" stroke-width="0.2" stroke-linejoin="round" d="M 160.581,41.2231L 158.282,43.387L 149.528,34.6321L 151.826,32.4682L 160.581,41.2231 Z "/>
			</g>
			<path fill="#FFFFFF" fill-opacity="1" stroke-width="0.2" stroke-linejoin="round" d="M 143.493,24.1382L 145.484,26.1287L 146.313,26.9582L 150.765,31.41L 148.502,33.673L 144.05,29.2212L 141.081,32.1909L 144.916,36.0262L 142.653,38.289L 138.818,34.4538L 136.147,37.1249L 140.598,41.5766L 138.335,43.8396L 133.054,38.5584L 133.054,38.5581L 131.064,36.5677L 143.493,24.1382 Z "/>
			<path fill="#FFFFFF" fill-opacity="1" stroke-width="0.2" stroke-linejoin="round" d="M 163.544,44.1891L 164.526,45.1717L 164.542,45.1476L 166.439,47.0449L 157.632,63.0973L 154.813,60.2774L 156.873,57.074L 153.69,53.8918L 150.479,55.9839L 147.66,53.164L 163.544,44.1891 Z M 162.689,48.0286L 156.382,52.1379L 158.612,54.3682L 162.689,48.0286 Z "/>
			<path fill="#FFFFFF" fill-opacity="1" stroke-width="0.2" stroke-linejoin="round" d="M 133.972,14.6174L 136.792,17.4372L 136.791,17.438L 138.563,19.2048C 140.434,21.0652 140.434,24.0815 138.563,25.9421C 137.361,27.1374 135.68,27.5646 134.135,27.2239C 134.714,28.842 134.352,30.7182 133.05,32.0134C 131.247,33.8066 128.324,33.8066 126.522,32.0134L 124.366,29.8638L 124.362,29.8669L 121.543,27.0469L 133.972,14.6174 Z M 127.873,28.9145C 128.81,29.8472 130.33,29.8472 131.268,28.9145C 132.206,27.9821 132.206,26.47 131.268,25.5374L 129.976,24.2527L 126.59,27.639L 127.873,28.9145 Z M 132.828,23.4699C 133.672,24.3099 135.041,24.3099 135.886,23.4699C 136.73,22.6301 136.73,21.2681 135.886,20.4281L 134.841,19.3887L 131.791,22.4386L 132.828,23.4699 Z "/>
		</g>
	</g>
</svg>
