<?xml version="1.0" encoding="utf-8"?>
<!DOCTYPE svg PUBLIC "-//W3C//DTD SVG 1.1//EN" "http://www.w3.org/Graphics/SVG/1.1/DTD/svg11.dtd">
<svg xmlns="http://www.w3.org/2000/svg" xmlns:xlink="http://www.w3.org/1999/xlink" version="1.1" baseProfile="full" width="460.927" height="202.872" viewBox="0 0 460.93 202.87" enable-background="new 0 0 460.93 202.87" xml:space="preserve">
	<g>
		<path fill="#FFFFFF" fill-opacity="1" stroke-linejoin="round" stroke="#3D3D3D" stroke-opacity="1" d="M 413.549,21.6393L 312.323,6.52502L 312.171,0.753174L 364.726,0.753174C 364.726,0.753174 374.446,0.702393 389.635,5.56299C 404.824,10.4237 411.204,14.3727 411.204,14.3727L 413.482,15.6891L 413.549,21.6393 Z "/>
		<path fill="#FFFFFF" fill-opacity="1" stroke-linejoin="round" stroke="#3D3D3D" stroke-opacity="1" d="M 149.483,6.95471L 47.9818,20.8534L 47.8299,14.7777C 47.8298,14.7778 60.5887,6.72754 71.221,4.14551C 81.8534,1.56335 99.405,0.5 123.927,0.500122C 148.45,0.500122 149.141,0.651978 149.141,0.651978L 149.483,6.95471 Z "/>
		<path fill="#FFFFFF" fill-opacity="1" stroke-linejoin="round" stroke="#3D3D3D" stroke-opacity="1" d="M 98.3182,6.73608C 98.5499,6.73608 98.7813,6.73694 99.0125,6.73853L 99.0125,6.73621L 361.48,6.73621L 361.48,6.74255L 362.609,6.73608C 416.633,6.73608 460.427,50.5308 460.427,104.554C 460.427,158.578 416.632,202.372 362.609,202.372C 338.779,202.372 316.939,193.851 299.971,179.69L 160.957,179.69C 143.988,193.851 122.148,202.372 98.3182,202.372C 44.2947,202.372 0.5,158.578 0.5,104.554C 0.5,50.5308 44.2947,6.73608 98.3182,6.73608 Z "/>
		<path fill="#FFFFFF" fill-opacity="1" stroke-linejoin="round" stroke="#3D3D3D" stroke-opacity="1" d="M 202.029,106.336L 202.029,106.336C 204.114,108.862 203.757,112.599 201.232,114.685L 182.061,130.514C 179.535,132.599 175.797,132.242 173.712,129.717L 173.712,129.717C 171.627,127.191 171.983,123.453 174.509,121.368L 193.68,105.539C 196.206,103.453 199.944,103.81 202.029,106.336 Z "/>
		<path fill="#FFFFFF" fill-opacity="1" stroke-linejoin="round" stroke="#3D3D3D" stroke-opacity="1" d="M 254.14,106.339L 254.14,106.339C 256.225,108.865 255.869,112.603 253.343,114.688L 234.171,130.518C 231.645,132.603 227.908,132.246 225.823,129.72L 225.823,129.72C 223.738,127.195 224.094,123.457 226.62,121.372L 245.792,105.542C 248.318,103.457 252.055,103.814 254.14,106.339 Z "/>
		<g>
			<ellipse fill="none" stroke-linejoin="round" stroke="#3D3D3D" stroke-opacity="1" cx="97.8035" cy="104.818" rx="52.858" ry="52.858"/>
			<g>
				<path fill="none" stroke-linejoin="round" stroke="#3D3D3D" stroke-opacity="1" d="M 86.1078,66.3892L 109.499,66.3892C 110.17,66.3892 110.714,66.9333 110.714,67.6044L 110.714,91.9069L 135.017,91.9069C 135.688,91.9069 136.232,92.451 136.232,93.1221L 136.232,116.513C 136.232,117.184 135.688,117.728 135.017,117.728L 110.714,117.728L 110.714,142.031C 110.714,142.702 110.17,143.246 109.499,143.246L 86.1078,143.246C 85.4367,143.246 84.8926,142.702 84.8926,142.031L 84.8926,117.728L 60.5901,117.728C 59.919,117.728 59.3749,117.184 59.3749,116.513L 59.3749,93.1221C 59.3749,92.451 59.919,91.9069 60.5901,91.9069L 84.8926,91.9069L 84.8926,67.6044C 84.8926,66.9333 85.4367,66.3892 86.1078,66.3892 Z "/>
				<g>
					<path fill="#FFFFFF" fill-opacity="1" stroke-linejoin="round" stroke="#3D3D3D" stroke-opacity="1" d="M 97.8032,71.0063L 89.663,85.1055L 105.943,85.1055L 97.8032,71.0063 Z "/>
					<path fill="#FFFFFF" fill-opacity="1" stroke-linejoin="round" stroke="#3D3D3D" stroke-opacity="1" d="M 97.8032,138.629L 105.943,124.53L 89.6631,124.53L 97.8032,138.629 Z "/>
					<g>
						<path fill="none" stroke-linejoin="round" stroke="#3D3D3D" stroke-opacity="1" d="M 97.8033,94.9004C 103.046,94.9004 107.297,99.1508 107.297,104.394C 107.297,109.637 103.046,113.887 97.8033,113.887C 92.5605,113.887 88.3102,109.637 88.3102,104.394C 88.3102,99.1508 92.5605,94.9004 97.8033,94.9004 Z "/>
						<path fill="#FFFFFF" fill-opacity="1" stroke-linejoin="round" stroke="#3D3D3D" stroke-opacity="1" d="M 131.51,104.394L 117.411,96.2535L 117.411,112.534L 131.51,104.394 Z "/>
						<path fill="#FFFFFF" fill-opacity="1" stroke-linejoin="round" stroke="#3D3D3D" stroke-opacity="1" d="M 64.0969,104.394L 78.196,112.534L 78.196,96.2539L 64.0969,104.394 Z "/>
					</g>
				</g>
			</g>
		</g>
		<ellipse fill="none" stroke-linejoin="round" stroke="#3D3D3D" stroke-opacity="1" cx="364.421" cy="103.786" rx="85.0591" ry="85.0591"/>
		<path fill="none" stroke-linejoin="round" stroke="#3D3D3D" stroke-opacity="1" d="M 380.492,54.6681L 380.492,54.6681C 388.319,64.1686 386.964,78.2159 377.463,86.0437L 334.233,121.662C 324.733,129.489 310.686,128.133 302.858,118.633L 302.858,118.633C 295.03,109.132 296.386,95.0846 305.887,87.257L 349.116,51.639C 358.617,43.8113 372.664,45.1675 380.492,54.6681 Z "/>
		<path fill="none" stroke-linejoin="round" stroke="#3D3D3D" stroke-opacity="1" d="M 424.504,89.5757L 424.504,89.5757C 432.331,99.0763 430.975,113.124 421.475,120.951L 378.245,156.569C 368.745,164.397 354.697,163.041 346.87,153.54L 346.87,153.54C 339.042,144.04 340.398,129.992 349.898,122.165L 393.128,86.5468C 402.628,78.719 416.676,80.0751 424.504,89.5757 Z "/>
		<path fill="#FFFFFF" fill-opacity="1" stroke-linejoin="round" stroke="#3D3D3D" stroke-opacity="1" d="M 320.221,86.9264C 329.868,86.9264 337.688,94.7467 337.688,104.394C 337.688,114.041 329.868,121.861 320.221,121.861C 310.574,121.861 302.753,114.041 302.753,104.394C 302.753,94.7467 310.574,86.9264 320.221,86.9264 Z "/>
		<path fill="#FFFFFF" fill-opacity="1" stroke-linejoin="round" stroke="#3D3D3D" stroke-opacity="1" d="M 363.51,53.358C 373.157,53.358 380.978,61.1783 380.978,70.8256C 380.978,80.4727 373.157,88.2931 363.51,88.2931C 353.863,88.2931 346.043,80.4727 346.043,70.8256C 346.043,61.1783 353.863,53.358 363.51,53.358 Z "/>
		<path fill="none" stroke-linejoin="round" stroke="#3D3D3D" stroke-opacity="1" d="M 363.51,121.405C 373.157,121.405 380.978,129.226 380.978,138.873C 380.978,148.52 373.157,156.34 363.51,156.34C 353.863,156.34 346.043,148.52 346.043,138.873C 346.043,129.226 353.863,121.405 363.51,121.405 Z "/>
		<path fill="#FFFFFF" fill-opacity="1" stroke-linejoin="round" stroke="#3D3D3D" stroke-opacity="1" d="M 407.255,86.7742C 416.902,86.7742 424.723,94.5945 424.723,104.242C 424.723,113.889 416.902,121.709 407.255,121.709C 397.608,121.709 389.787,113.889 389.787,104.242C 389.787,94.5945 397.608,86.7742 407.255,86.7742 Z "/>
		<path fill="none" stroke-linejoin="round" stroke="#3D3D3D" stroke-opacity="1" d="M 403.786,49.1633L 401.414,49.1633L 397.596,44.6414C 397.479,44.5042 397.351,44.3091 397.213,44.0559L 397.169,44.0559C 397.091,44.1825 396.959,44.3777 396.774,44.6414L 392.839,49.1633L 390.457,49.1633L 396.054,43.2253L 390.925,37.3508L 393.314,37.3508L 396.716,41.5037C 396.94,41.7778 397.137,42.052 397.308,42.3263L 397.355,42.3263C 397.604,41.9641 397.82,41.6785 398.006,41.4694L 401.546,37.3508L 403.786,37.3508L 398.55,43.2069L 403.786,49.1633 Z "/>
		<path fill="none" stroke-linejoin="round" stroke="#3D3D3D" stroke-opacity="1" d="M 297.832,115.817L 291.918,122.488L 291.918,126.431L 289.861,126.431L 289.861,122.517L 284.205,115.817L 286.603,115.817L 290.492,120.624C 290.54,120.682 290.681,120.899 290.914,121.275L 290.95,121.275C 291.033,121.108 291.189,120.891 291.416,120.624L 295.518,115.817L 297.832,115.817 Z "/>
		<path fill="none" stroke-linejoin="round" stroke="#3D3D3D" stroke-opacity="1" d="M 322.193,163.242L 322.193,152.116L 328.082,152.116C 329.874,152.116 331.294,152.35 332.343,152.819C 333.391,153.287 333.916,153.897 333.916,154.649C 333.916,155.277 333.602,155.822 332.975,156.286C 332.347,156.749 331.482,157.079 330.38,157.274L 330.38,157.307C 331.806,157.394 332.947,157.678 333.803,158.158C 334.66,158.638 335.088,159.264 335.088,160.033C 335.088,160.989 334.445,161.762 333.16,162.354C 331.875,162.946 330.254,163.242 328.297,163.242L 322.193,163.242 Z M 324.537,153.229L 324.537,156.884L 327.015,156.884C 328.34,156.884 329.381,156.709 330.14,156.359C 330.899,156.009 331.278,155.515 331.278,154.878C 331.278,153.778 329.958,153.229 327.317,153.229L 324.537,153.229 Z M 324.537,157.997L 324.537,162.13L 327.885,162.13C 329.332,162.13 330.454,161.943 331.253,161.569C 332.051,161.196 332.45,160.683 332.45,160.031C 332.45,158.675 330.757,157.997 327.372,157.997L 324.537,157.997 Z "/>
		<path fill="none" stroke-linejoin="round" stroke="#3D3D3D" stroke-opacity="1" d="M 440.205,86.0387L 438.321,86.0387L 436.741,83.3472L 430.669,83.3472L 429.179,86.0387L 427.285,86.0387L 432.854,76.6185L 434.617,76.6185L 440.205,86.0387 Z M 436.203,82.4052L 433.944,78.4542C 433.871,78.3239 433.798,78.1156 433.726,77.8297L 433.684,77.8297C 433.616,78.0946 433.537,78.3027 433.447,78.4542L 431.204,82.4052L 436.203,82.4052 Z "/>
		<g>
			<path fill="#3D3D3D" fill-opacity="1" stroke-linejoin="round" stroke="#3D3D3D" stroke-opacity="1" d="M 176.251,140.676C 176.161,140.6 176.053,140.528 175.927,140.461C 175.802,140.393 175.668,140.333 175.524,140.283C 175.381,140.232 175.231,140.192 175.076,140.163C 174.92,140.133 174.766,140.118 174.613,140.118C 174.322,140.118 174.079,140.16 173.881,140.244C 173.684,140.327 173.525,140.433 173.405,140.562C 173.285,140.69 173.199,140.83 173.146,140.982C 173.094,141.134 173.068,141.277 173.068,141.411C 173.068,141.58 173.091,141.733 173.138,141.87C 173.185,142.007 173.256,142.139 173.351,142.266C 173.446,142.392 173.567,142.518 173.716,142.644C 173.864,142.77 174.038,142.905 174.238,143.049C 174.462,143.212 174.662,143.372 174.839,143.531C 175.015,143.691 175.165,143.854 175.288,144.022C 175.411,144.189 175.504,144.366 175.568,144.552C 175.631,144.738 175.663,144.938 175.663,145.154C 175.663,145.288 175.649,145.435 175.623,145.596C 175.596,145.757 175.547,145.918 175.476,146.08C 175.405,146.242 175.308,146.401 175.185,146.556C 175.061,146.712 174.904,146.849 174.714,146.968C 174.523,147.087 174.294,147.182 174.026,147.255C 173.758,147.326 173.442,147.362 173.078,147.362C 172.875,147.362 172.676,147.348 172.48,147.319C 172.285,147.29 172.099,147.252 171.922,147.204C 171.746,147.156 171.584,147.103 171.437,147.043C 171.29,146.983 171.165,146.924 171.06,146.865L 171.217,145.914C 171.333,146.004 171.466,146.09 171.615,146.171C 171.764,146.251 171.922,146.322 172.088,146.384C 172.255,146.445 172.427,146.494 172.605,146.529C 172.782,146.565 172.958,146.582 173.132,146.582C 173.409,146.582 173.646,146.549 173.843,146.481C 174.04,146.414 174.203,146.322 174.332,146.204C 174.461,146.087 174.555,145.948 174.615,145.788C 174.675,145.628 174.705,145.455 174.705,145.269C 174.705,145.107 174.68,144.961 174.629,144.831C 174.579,144.7 174.501,144.573 174.396,144.449C 174.291,144.325 174.157,144.199 173.996,144.07C 173.835,143.942 173.643,143.8 173.421,143.645C 173.244,143.519 173.074,143.383 172.913,143.237C 172.752,143.091 172.61,142.931 172.488,142.757C 172.366,142.584 172.27,142.395 172.199,142.192C 172.128,141.988 172.093,141.767 172.093,141.529C 172.093,141.233 172.148,140.953 172.259,140.688C 172.37,140.423 172.534,140.191 172.752,139.99C 172.97,139.79 173.239,139.631 173.56,139.514C 173.881,139.397 174.254,139.338 174.679,139.338C 174.841,139.338 175.003,139.348 175.165,139.369C 175.327,139.389 175.484,139.417 175.636,139.452C 175.789,139.488 175.932,139.527 176.068,139.57C 176.204,139.613 176.325,139.657 176.431,139.702L 176.251,140.676 Z "/>
			<path fill="#3D3D3D" fill-opacity="1" stroke-linejoin="round" stroke="#3D3D3D" stroke-opacity="1" d="M 182.259,140.23L 179.25,140.23L 178.684,142.905L 181.47,142.905L 181.291,143.685L 178.505,143.685L 177.933,146.471L 181.132,146.471L 180.969,147.251L 176.833,147.251L 178.482,139.45L 182.438,139.45L 182.259,140.23 Z "/>
			<path fill="#3D3D3D" fill-opacity="1" stroke-linejoin="round" stroke="#3D3D3D" stroke-opacity="1" d="M 186.449,147.251L 182.405,147.251L 184.054,139.45L 185.002,139.45L 183.521,146.471L 186.628,146.471L 186.449,147.251 Z "/>
			<path fill="#3D3D3D" fill-opacity="1" stroke-linejoin="round" stroke="#3D3D3D" stroke-opacity="1" d="M 192.958,140.23L 189.949,140.23L 189.383,142.905L 192.169,142.905L 191.99,143.685L 189.203,143.685L 188.632,146.471L 191.831,146.471L 191.668,147.251L 187.532,147.251L 189.181,139.45L 193.137,139.45L 192.958,140.23 Z "/>
			<path fill="#3D3D3D" fill-opacity="1" stroke-linejoin="round" stroke="#3D3D3D" stroke-opacity="1" d="M 199.913,140.703C 199.807,140.636 199.687,140.567 199.551,140.497C 199.415,140.427 199.265,140.364 199.101,140.308C 198.938,140.252 198.759,140.207 198.565,140.172C 198.371,140.136 198.163,140.118 197.942,140.118C 197.398,140.118 196.908,140.215 196.471,140.408C 196.034,140.602 195.663,140.868 195.358,141.208C 195.054,141.549 194.819,141.948 194.653,142.406C 194.488,142.864 194.405,143.359 194.405,143.892C 194.405,144.327 194.465,144.712 194.584,145.046C 194.704,145.379 194.875,145.661 195.096,145.889C 195.318,146.118 195.583,146.291 195.891,146.407C 196.199,146.524 196.54,146.582 196.914,146.582C 197.153,146.582 197.371,146.568 197.567,146.539C 197.763,146.51 197.945,146.469 198.111,146.416C 198.278,146.363 198.435,146.301 198.582,146.229C 198.728,146.157 198.871,146.08 199.009,145.997L 198.797,146.952C 198.503,147.085 198.188,147.187 197.853,147.257C 197.517,147.327 197.141,147.362 196.723,147.362C 196.229,147.362 195.781,147.281 195.377,147.119C 194.973,146.956 194.628,146.726 194.343,146.429C 194.058,146.132 193.838,145.774 193.681,145.356C 193.525,144.937 193.447,144.472 193.447,143.96C 193.447,143.281 193.555,142.658 193.771,142.092C 193.987,141.526 194.293,141.04 194.691,140.632C 195.088,140.225 195.565,139.907 196.122,139.68C 196.679,139.452 197.297,139.338 197.975,139.338C 198.439,139.338 198.85,139.386 199.208,139.482C 199.565,139.578 199.867,139.686 200.113,139.807L 199.913,140.703 Z "/>
			<path fill="#3D3D3D" fill-opacity="1" stroke-linejoin="round" stroke="#3D3D3D" stroke-opacity="1" d="M 206.311,140.23L 204.09,140.23L 202.621,147.251L 201.686,147.251L 203.166,140.23L 200.895,140.23L 201.069,139.45L 206.49,139.45L 206.311,140.23 Z "/>
		</g>
		<g>
			<path fill="#3D3D3D" fill-opacity="1" stroke-linejoin="round" stroke="#3D3D3D" stroke-opacity="1" d="M 228.992,140.502C 228.902,140.427 228.794,140.355 228.668,140.287C 228.543,140.219 228.409,140.16 228.265,140.109C 228.122,140.059 227.972,140.019 227.817,139.989C 227.661,139.96 227.507,139.945 227.354,139.945C 227.063,139.945 226.82,139.987 226.622,140.07C 226.425,140.154 226.266,140.26 226.146,140.388C 226.026,140.516 225.94,140.656 225.887,140.808C 225.835,140.961 225.809,141.103 225.809,141.237C 225.809,141.406 225.832,141.56 225.88,141.697C 225.927,141.834 225.997,141.965 226.092,142.092C 226.187,142.218 226.308,142.345 226.457,142.471C 226.605,142.597 226.78,142.732 226.979,142.875C 227.203,143.038 227.403,143.199 227.58,143.358C 227.756,143.517 227.906,143.68 228.029,143.848C 228.152,144.016 228.245,144.193 228.309,144.378C 228.372,144.564 228.404,144.765 228.404,144.981C 228.404,145.114 228.39,145.261 228.364,145.422C 228.337,145.583 228.288,145.744 228.217,145.906C 228.147,146.068 228.049,146.227 227.926,146.383C 227.802,146.538 227.645,146.676 227.455,146.794C 227.264,146.913 227.035,147.009 226.767,147.081C 226.499,147.153 226.183,147.189 225.819,147.189C 225.616,147.189 225.417,147.174 225.221,147.145C 225.026,147.116 224.84,147.078 224.663,147.03C 224.487,146.983 224.325,146.929 224.178,146.869C 224.031,146.81 223.906,146.75 223.801,146.691L 223.958,145.74C 224.074,145.831 224.207,145.916 224.356,145.997C 224.505,146.078 224.663,146.149 224.829,146.21C 224.996,146.272 225.168,146.32 225.346,146.356C 225.523,146.391 225.699,146.409 225.873,146.409C 226.15,146.409 226.387,146.375 226.584,146.308C 226.781,146.24 226.944,146.148 227.073,146.031C 227.202,145.914 227.296,145.775 227.356,145.615C 227.416,145.454 227.446,145.281 227.446,145.096C 227.446,144.933 227.421,144.787 227.37,144.657C 227.32,144.527 227.242,144.4 227.137,144.276C 227.032,144.151 226.899,144.025 226.737,143.897C 226.576,143.769 226.384,143.627 226.163,143.471C 225.985,143.346 225.815,143.21 225.654,143.064C 225.493,142.917 225.351,142.757 225.229,142.584C 225.107,142.41 225.011,142.222 224.94,142.018C 224.869,141.814 224.834,141.593 224.834,141.355C 224.834,141.059 224.889,140.779 225,140.514C 225.111,140.25 225.275,140.017 225.493,139.817C 225.711,139.617 225.98,139.458 226.301,139.341C 226.622,139.223 226.995,139.165 227.42,139.165C 227.582,139.165 227.745,139.175 227.906,139.195C 228.068,139.215 228.225,139.243 228.378,139.279C 228.53,139.314 228.674,139.353 228.809,139.396C 228.945,139.439 229.066,139.483 229.172,139.529L 228.992,140.502 Z "/>
			<path fill="#3D3D3D" fill-opacity="1" stroke-linejoin="round" stroke="#3D3D3D" stroke-opacity="1" d="M 235.648,140.056L 233.428,140.056L 231.958,147.077L 231.023,147.077L 232.503,140.056L 230.232,140.056L 230.406,139.276L 235.827,139.276L 235.648,140.056 Z "/>
			<path fill="#3D3D3D" fill-opacity="1" stroke-linejoin="round" stroke="#3D3D3D" stroke-opacity="1" d="M 239.958,147.077L 239.604,144.849L 236.296,144.849L 235.033,147.077L 233.955,147.077L 238.603,139.276L 239.561,139.276L 240.921,147.077L 239.958,147.077 Z M 238.956,140.751L 238.949,140.627C 238.947,140.579 238.946,140.532 238.946,140.485C 238.946,140.433 238.946,140.386 238.946,140.344L 238.946,140.223L 238.881,140.34C 238.863,140.385 238.843,140.433 238.821,140.482C 238.798,140.531 238.776,140.579 238.752,140.627L 238.69,140.751L 236.764,144.068L 239.456,144.068L 238.956,140.751 Z "/>
			<path fill="#3D3D3D" fill-opacity="1" stroke-linejoin="round" stroke="#3D3D3D" stroke-opacity="1" d="M 247.903,141.202C 247.903,141.539 247.845,141.843 247.727,142.114C 247.609,142.385 247.447,142.618 247.24,142.814C 247.033,143.009 246.787,143.166 246.5,143.283C 246.213,143.4 245.901,143.473 245.563,143.502L 245.563,143.525C 245.734,143.58 245.884,143.694 246.012,143.868C 246.141,144.042 246.246,144.277 246.326,144.572L 246.979,147.077L 245.978,147.077L 245.401,144.732C 245.318,144.388 245.184,144.136 245.001,143.975C 244.817,143.814 244.575,143.734 244.274,143.734L 243.594,143.734L 242.881,147.077L 241.944,147.077L 243.594,139.276L 245.744,139.276C 246.125,139.276 246.451,139.327 246.723,139.428C 246.994,139.529 247.217,139.667 247.392,139.843C 247.566,140.019 247.694,140.223 247.778,140.457C 247.862,140.69 247.903,140.938 247.903,141.202 Z M 246.946,141.287C 246.946,141.11 246.918,140.945 246.864,140.795C 246.809,140.644 246.726,140.514 246.614,140.405C 246.502,140.295 246.359,140.21 246.185,140.149C 246.011,140.087 245.803,140.056 245.563,140.056L 244.362,140.056L 243.762,142.954L 244.84,142.954C 245.221,142.954 245.545,142.907 245.811,142.815C 246.078,142.722 246.295,142.599 246.464,142.447C 246.633,142.295 246.756,142.118 246.832,141.915C 246.908,141.713 246.946,141.503 246.946,141.287 Z "/>
			<path fill="#3D3D3D" fill-opacity="1" stroke-linejoin="round" stroke="#3D3D3D" stroke-opacity="1" d="M 254.204,140.056L 251.984,140.056L 250.514,147.077L 249.579,147.077L 251.059,140.056L 248.788,140.056L 248.962,139.276L 254.383,139.276L 254.204,140.056 Z "/>
		</g>
		<path fill="#3D3D3D" fill-opacity="1" stroke-width="0.2" stroke-linejoin="round" d="M 153.159,38.8289L 276.191,38.8289C 278.372,38.8289 280.14,40.5968 280.14,42.7778L 280.14,42.7778C 280.14,44.9586 278.372,46.7267 276.191,46.7267L 153.159,46.7267C 150.978,46.7267 149.21,44.9586 149.21,42.7778L 149.21,42.7778C 149.21,40.5968 150.978,38.8289 153.159,38.8289 Z "/>
		<g>
			<path fill="#3D3D3D" fill-opacity="1" stroke-width="0.2" stroke-linejoin="round" d="M 159.03,28.8005C 159.784,28.4292 160.31,28.058 160.608,27.6866C 160.89,27.3395 161.13,26.7649 161.327,25.9629C 161.678,24.5372 161.6,23.505 161.093,22.8665C 160.612,22.2631 159.698,21.9614 158.35,21.9614C 157.013,21.9614 155.935,22.2806 155.115,22.9193C 154.28,23.5691 153.702,24.5493 153.379,25.8599C 153.191,26.6248 153.158,27.2457 153.281,27.7229C 153.408,28.2203 153.706,28.5796 154.173,28.8005C 153.331,29.1719 152.703,29.7111 152.291,30.4185C 152.041,30.8602 151.791,31.5917 151.54,32.6128L 151.504,32.8215C 151.093,34.4924 151.097,35.7102 151.517,36.4751C 151.969,37.2882 152.956,37.6948 154.477,37.6948C 155.966,37.6948 157.132,37.3058 157.975,36.528C 158.787,35.7965 159.392,34.6187 159.792,32.9943L 159.813,32.908C 159.996,32.1653 160.112,31.6493 160.161,31.3596C 160.245,30.8844 160.274,30.501 160.248,30.2096C 160.208,29.8846 160.096,29.6127 159.912,29.3937C 159.716,29.1727 159.422,28.975 159.03,28.8005 Z M 158.991,26.5728C 158.86,27.1074 158.597,27.514 158.203,27.7925C 157.822,28.058 157.348,28.1907 156.783,28.1907C 156.197,28.1907 155.786,28.0515 155.55,27.7729C 155.311,27.5076 155.248,27.1483 155.359,26.6953L 155.642,25.5453C 155.768,25.0347 156.021,24.6235 156.402,24.3116C 156.8,23.9738 157.287,23.8048 157.863,23.8048C 158.407,23.8048 158.808,23.9673 159.065,24.2921C 159.313,24.6058 159.373,25.0236 159.244,25.5453L 158.991,26.5728 Z M 157.359,33.7963C 157.202,34.4348 156.897,34.9277 156.442,35.2749C 156.009,35.6239 155.488,35.7985 154.879,35.7985C 154.26,35.7985 153.83,35.6239 153.589,35.2749C 153.357,34.9388 153.32,34.4515 153.477,33.813L 153.961,31.8469C 154.109,31.2437 154.397,30.7795 154.825,30.4546C 155.242,30.1298 155.766,29.9673 156.395,29.9673C 156.993,29.9673 157.42,30.1353 157.674,30.4713C 157.927,30.8074 157.982,31.2659 157.839,31.8469L 157.359,33.7963 Z "/>
			<path fill="#3D3D3D" fill-opacity="1" stroke-width="0.2" stroke-linejoin="round" d="M 160.254,37.3995L 164.965,37.3995C 165.747,37.3995 166.373,37.3531 166.841,37.2604C 167.375,37.1675 167.814,36.9987 168.157,36.7535C 168.509,36.5104 168.815,36.1511 169.075,35.6759C 169.317,35.2229 169.532,34.614 169.72,33.8491L 170.068,32.4373C 170.316,31.4292 170.339,30.6931 170.136,30.229C 169.942,29.7408 169.451,29.3983 168.663,29.2015C 169.494,29.0048 170.077,28.7318 170.414,28.3828C 170.745,28.0468 171.019,27.4379 171.236,26.556L 171.554,25.2667C 171.845,24.0842 171.792,23.2841 171.396,22.8665C 170.998,22.4487 170.066,22.2399 168.6,22.2399L 163.986,22.2399L 160.254,37.3995 Z M 165.83,24.0833L 165.995,24.0833C 166.918,24.0833 167.534,24.0953 167.843,24.1195C 168.338,24.1417 168.685,24.2114 168.884,24.3284C 169.097,24.4323 169.215,24.6124 169.239,24.8685C 169.258,25.1006 169.208,25.4598 169.088,25.9463C 168.927,26.5607 168.797,27.0016 168.698,27.2689C 168.568,27.6179 168.424,27.8733 168.264,28.0348C 168.106,28.1981 167.883,28.3086 167.596,28.3661C 167.354,28.4237 166.993,28.4524 166.515,28.4524L 164.751,28.4691L 165.83,24.0833 Z M 164.309,30.2625L 164.408,30.2625C 165.429,30.2625 166.11,30.2745 166.452,30.2987C 166.991,30.3209 167.372,30.384 167.595,30.488C 167.83,30.5939 167.967,30.7683 168.006,31.0116C 168.038,31.2324 167.998,31.575 167.883,32.0391L 167.532,33.4648C 167.412,33.9531 167.279,34.3188 167.132,34.562C 166.979,34.8293 166.769,35.0205 166.5,35.1356C 166.254,35.2526 165.893,35.3278 165.417,35.3612C 165.107,35.3854 164.523,35.3975 163.666,35.3975L 163.041,35.4141L 164.309,30.2625 Z "/>
			<path fill="#3D3D3D" fill-opacity="1" stroke-width="0.2" stroke-linejoin="round" d="M 174.534,22.2399L 170.802,37.3995L 173.134,37.3995L 176.866,22.2399L 174.534,22.2399 Z "/>
			<path fill="#3D3D3D" fill-opacity="1" stroke-width="0.2" stroke-linejoin="round" d="M 177.893,22.2399L 177.41,24.2058L 180.002,24.2058L 176.754,37.3995L 179.068,37.3995L 182.316,24.2058L 185.461,24.2058L 185.945,22.2399L 177.893,22.2399 Z "/>
			<path fill="#3D3D3D" fill-opacity="1" stroke-width="0.2" stroke-linejoin="round" d="M 183.322,37.3995L 187.383,37.3995C 189.078,37.3995 190.322,37.1146 191.115,36.5447C 191.889,36.0007 192.443,35.0493 192.777,33.6904L 194.812,25.4255C 195.106,24.23 195.005,23.4056 194.507,22.9528C 193.995,22.4774 192.875,22.2399 191.146,22.2399L 187.054,22.2399L 183.322,37.3995 Z M 188.877,24.1028C 189.954,24.1028 190.685,24.1139 191.071,24.1362C 191.606,24.1715 191.977,24.2532 192.184,24.3812C 192.4,24.5205 192.509,24.7405 192.512,25.0413C 192.516,25.2844 192.443,25.7142 192.291,26.3306L 190.749,32.5961C 190.563,33.3497 190.401,33.877 190.263,34.1777C 190.092,34.562 189.865,34.8405 189.583,35.0132C 189.304,35.1765 188.887,35.2814 188.331,35.3278C 187.918,35.3741 187.174,35.3975 186.097,35.3975L 188.877,24.1028 Z "/>
			<path fill="#3D3D3D" fill-opacity="1" stroke-width="0.2" stroke-linejoin="round" d="M 204.63,26.9376C 204.976,25.5341 205.025,24.45 204.779,23.6851C 204.391,22.5248 203.333,21.9447 201.605,21.9447C 199.845,21.9447 198.491,22.5248 197.541,23.6851C 196.92,24.4388 196.442,25.5229 196.106,26.9376L 194.735,32.507C 194.364,34.0162 194.295,35.1533 194.529,35.9181C 194.887,37.1136 195.952,37.7114 197.724,37.7114C 199.463,37.7114 200.811,37.1136 201.767,35.9181C 202.383,35.1421 202.88,34.0051 203.259,32.507L 204.63,26.9376 Z M 200.818,33.153C 200.644,33.8602 200.386,34.4227 200.045,34.8405C 199.576,35.4197 198.966,35.7094 198.217,35.7094C 197.521,35.7094 197.071,35.4197 196.866,34.8405C 196.695,34.3875 196.689,33.8417 196.846,33.2031L 198.585,26.1384C 198.725,25.5703 198.991,25.083 199.383,24.6764C 199.863,24.1882 200.44,23.9441 201.113,23.9441C 201.754,23.9441 202.197,24.1761 202.441,24.6403C 202.659,25.0356 202.693,25.535 202.545,26.1384L 200.818,33.153 Z "/>
			<path fill="#3D3D3D" fill-opacity="1" stroke-width="0.2" stroke-linejoin="round" d="M 220.251,27.1826C 220.668,25.4877 220.631,24.2058 220.138,23.337C 219.616,22.4088 218.567,21.9447 216.991,21.9447C 215.318,21.9447 214.032,22.4895 213.133,23.5792C 212.446,24.4258 211.87,25.7949 211.405,27.6866L 210.295,32.1951C 209.841,34.0404 209.726,35.3687 209.95,36.1799C 210.241,37.2009 211.104,37.7114 212.539,37.7114C 213.083,37.7114 213.603,37.6075 214.1,37.3995C 214.498,37.2362 214.929,36.9866 215.393,36.6505L 215.485,37.3995L 217.571,37.3995L 219.517,29.4967L 215.539,29.4967L 215.042,31.5156L 216.722,31.5156L 216.272,33.3423C 216.086,34.0979 215.791,34.678 215.387,35.0828C 214.936,35.5469 214.374,35.7789 213.701,35.7789C 213.102,35.7789 212.672,35.5645 212.409,35.1356C 212.154,34.7068 212.11,34.1554 212.276,33.4816L 214.071,26.1913C 214.208,25.6344 214.481,25.1405 214.892,24.7098C 215.39,24.1882 215.961,23.9274 216.602,23.9274C 217.547,23.9274 218.108,24.1826 218.287,24.6931C 218.398,24.9957 218.363,25.5183 218.18,26.2609L 218.133,26.4503L 217.794,27.8259L 220.092,27.8259L 220.251,27.1826 Z "/>
			<path fill="#3D3D3D" fill-opacity="1" stroke-width="0.2" stroke-linejoin="round" d="M 225.495,22.2399L 218.878,37.3995L 221.194,37.3995L 222.867,33.5177L 225.979,33.5177L 225.759,37.3995L 228.041,37.3995L 228.919,22.2399L 225.495,22.2399 Z M 226.544,24.9382L 226.086,31.4292L 223.788,31.4292L 226.544,24.9382 Z "/>
			<path fill="#3D3D3D" fill-opacity="1" stroke-width="0.2" stroke-linejoin="round" d="M 240.297,22.2399L 235.809,33.71L 236.692,26.0854L 237.002,22.2399L 232.928,22.2399L 229.197,37.3995L 231.479,37.3995L 234.602,24.7098L 233.777,37.3995L 236.043,37.3995L 241.4,24.7098L 238.276,37.3995L 240.574,37.3995L 244.306,22.2399L 240.297,22.2399 Z "/>
			<path fill="#3D3D3D" fill-opacity="1" stroke-width="0.2" stroke-linejoin="round" d="M 242.22,37.3995L 248.61,37.3995L 249.112,35.3612L 245.022,35.3612L 246.213,30.5243L 249.911,30.5243L 250.378,28.6279L 246.679,28.6279L 247.759,24.2421L 251.703,24.2421L 252.196,22.2399L 245.951,22.2399L 242.22,37.3995 Z "/>
			<path fill="#3D3D3D" fill-opacity="1" stroke-width="0.2" stroke-linejoin="round" d="M 249.982,37.3995L 252.28,37.3995L 253.78,31.3068L 255.963,31.3068C 257.149,31.3068 258.058,31.0338 258.692,30.488C 259.324,29.9552 259.792,29.0679 260.098,27.8259L 260.715,25.3197C 260.975,24.2634 260.885,23.48 260.446,22.9695C 260.032,22.483 259.288,22.2399 258.213,22.2399L 253.714,22.2399L 249.982,37.3995 Z M 255.519,24.2421L 257.329,24.2421C 257.697,24.2421 257.971,24.3405 258.151,24.5372C 258.364,24.7804 258.409,25.1517 258.286,25.6511L 257.751,27.8259C 257.622,28.3475 257.385,28.7365 257.038,28.9927C 256.746,29.2136 256.404,29.3241 256.013,29.3241L 254.272,29.3046L 255.519,24.2421 Z "/>
			<path fill="#3D3D3D" fill-opacity="1" stroke-width="0.2" stroke-linejoin="round" d="M 265.057,22.2399L 258.441,37.3995L 260.757,37.3995L 262.43,33.5177L 265.541,33.5177L 265.321,37.3995L 267.603,37.3995L 268.482,22.2399L 265.057,22.2399 Z M 266.106,24.9382L 265.648,31.4292L 263.35,31.4292L 266.106,24.9382 Z "/>
			<path fill="#3D3D3D" fill-opacity="1" stroke-width="0.2" stroke-linejoin="round" d="M 268.79,37.3995L 272.851,37.3995C 274.547,37.3995 275.791,37.1146 276.583,36.5447C 277.357,36.0007 277.911,35.0493 278.245,33.6904L 280.28,25.4255C 280.574,24.23 280.473,23.4056 279.976,22.9528C 279.463,22.4774 278.343,22.2399 276.614,22.2399L 272.522,22.2399L 268.79,37.3995 Z M 274.346,24.1028C 275.422,24.1028 276.153,24.1139 276.539,24.1362C 277.074,24.1715 277.445,24.2532 277.652,24.3812C 277.868,24.5205 277.978,24.7405 277.98,25.0413C 277.985,25.2844 277.911,25.7142 277.759,26.3306L 276.217,32.5961C 276.031,33.3497 275.869,33.877 275.731,34.1777C 275.56,34.562 275.333,34.8405 275.051,35.0132C 274.772,35.1765 274.355,35.2814 273.799,35.3278C 273.386,35.3741 272.642,35.3975 271.565,35.3975L 274.346,24.1028 Z "/>
		</g>
	</g>
</svg>
